# xmcd CD database file
#
# Track frame offsets:
#        150
#        20032
#        33701
#        54731
#        69687
#        90151
#        167149
#        190519
#        221914
#
# Disc length: 3176 seconds
#
# Revision: 0
# Processed by: cddbd v1.5.2PL0 Copyright (c) Steve Scherf et al.
# Submitted via: CUERipper 2.1.5
#
DISCID=7e0c6609
DTITLE=Bo Diddley - The 20th Anniversary of Rock'N'Roll
DYEAR=2014
DGENRE=Blues
TTITLE0=Ride The Water (Part 1)
TTITLE1=Not Fade Away
TTITLE2=Kill My Body
TTITLE3=Drag On
TTITLE4=Ride The Water (Part 2)
TTITLE5=Bo Diddley Jam (I'm The Man-Who Do You Love-Bo Diddley Is A Gunslinger)
TTITLE6=Mona (Bonus Track)
TTITLE7=Emily (Bonus Track)
TTITLE8=You Can't Judge A Book By Looking At The Cover (Bonus Track)
EXTD=
EXTT0=
EXTT1=
EXTT2=
EXTT3=
EXTT4=
EXTT5=
EXTT6=
EXTT7=
EXTT8=
PLAYORDER=
